<?xml version="1.0" encoding="UTF-8" standalone="no"?>
<!DOCTYPE svg PUBLIC "-//W3C//DTD SVG 1.1//EN" "http://www.w3.org/Graphics/SVG/1.1/DTD/svg11.dtd">
<!--Generated by Intaglio, www.PurgatoryDesign.com-->
<svg version="1.1" viewBox="0,0,734,576" width="734" height="576" xmlns="http://www.w3.org/2000/svg" xmlns:xlink="http://www.w3.org/1999/xlink" xmlns:intaglio="http://purgatorydesign.com/namespaces/intaglio" intaglio:grid="36,36,1,1,0.5,#9999bf,1,0,0,0" intaglio:guides="0.8,#f0f,1,1"><text fill="#118002" font-family="Helvetica" font-size="64" transform="matrix(1,0,0,1,108.027,108)" xml:space="preserve"><tspan>World</tspan></text><text fill="#118002" font-family="Helvetica" font-size="64" transform="matrix(1,0,0,1,418.531,108)" xml:space="preserve"><tspan>Problem</tspan></text><text fill="#000100" font-family="Helvetica" font-size="64" transform="matrix(1,0,0,1,85.293,215.314)" xml:space="preserve"><tspan>Axioms</tspan></text><text fill="#000100" font-family="Helvetica" font-size="64" transform="matrix(1,0,0,1,388.188,214.83)" xml:space="preserve"><tspan>Conjecture</tspan></text><text fill="#fb0207" font-family="Helvetica" font-size="48" transform="matrix(1,0,0,1,147.961,324.5)" xml:space="preserve"><tspan>Automated Reasoning</tspan></text><text fill="#118002" font-family="Helvetica" font-size="64" transform="matrix(1,0,0,1,244.339,539.5)" xml:space="preserve"><tspan>Solution</tspan></text><text fill="#000100" font-family="Helvetica" font-size="36" transform="matrix(1,0,0,1,272,247.84)" xml:space="preserve"><tspan>(in Logic)</tspan></text><text fill="#000100" font-family="Helvetica" font-size="64" transform="matrix(1,0,0,1,280.698,431.588)" xml:space="preserve"><tspan>Proof</tspan></text><g><path fill="none" intaglio:arrow-end="6" stroke="#000100" stroke-width="6.5" d="M180.5,117.5 L180.12,156.94" intaglio:d="M180.5,117.5 L180,169.408"/><path fill="#000100" intaglio:omit="yes" d="M192.103,145.774 L180,169.408 L168.354,145.545 L180.126,156.346"/></g><g><path fill="none" intaglio:arrow-end="6" stroke="#000100" stroke-width="6.5" d="M543.203,117.5 L542.823,156.94" intaglio:d="M543.203,117.5 L542.703,169.408"/><path fill="#000100" intaglio:omit="yes" d="M554.806,145.774 L542.703,169.408 L531.057,145.545 L542.829,156.346"/></g><g><path fill="none" intaglio:arrow-end="6" stroke="#000100" stroke-width="6.5" d="M180,233.046 L281.661,284.337" intaglio:d="M180,233.046 L292.793,289.953"/><path fill="#000100" intaglio:omit="yes" d="M276.938,268.653 L292.793,289.953 L266.24,289.857 L281.131,284.069"/></g><g><path fill="none" intaglio:arrow-end="6" stroke="#000100" stroke-width="6.5" d="M543.203,233.046 L441.542,284.337" intaglio:d="M543.203,233.046 L430.41,289.953"/><path fill="#000100" intaglio:omit="yes" d="M456.963,289.857 L430.41,289.953 L446.265,268.653 L442.072,284.069"/></g><g><path fill="none" intaglio:arrow-end="6" stroke="#000100" stroke-width="6.5" d="M359.271,335.117 L359.445,374.557" intaglio:d="M359.271,335.117 L359.5,387.025"/><path fill="#000100" intaglio:omit="yes" d="M371.27,363.223 L359.5,387.025 L347.52,363.328 L359.442,373.963"/></g><g><path fill="none" intaglio:arrow-end="6" stroke="#000100" stroke-width="6.5" d="M359.271,440.436 L359.445,479.875" intaglio:d="M359.271,440.436 L359.5,492.344"/><path fill="#000100" intaglio:omit="yes" d="M371.27,468.542 L359.5,492.344 L347.52,468.646 L359.442,479.281"/></g></svg>
